REM DIRINDEX 1\2,1\3
REM DIRNAME cjc143,folder01,folder02
TITLE ""
FILE "2000 phrasesTrack34.mp3" MP3
  TRACK 01 AUDIO
    TITLE "2:cjc143_1167"
    INDEX 01 00:00:00
  TRACK 02 AUDIO
    TITLE "0:"
    INDEX 01 00:00:56
  TRACK 03 AUDIO
    TITLE "2:cjc143_1168"
    INDEX 01 00:01:30
  TRACK 04 AUDIO
    TITLE "0:"
    INDEX 01 00:02:61
  TRACK 05 AUDIO
    TITLE "2:cjc143_1169"
    INDEX 01 00:03:00
  TRACK 06 AUDIO
    TITLE "0:"
    INDEX 01 00:04:27
  TRACK 07 AUDIO
    TITLE "2:cjc143_1170"
    INDEX 01 00:04:33
  TRACK 08 AUDIO
    TITLE "0:"
    INDEX 01 00:05:71
  TRACK 09 AUDIO
    TITLE "2:cjc143_1171"
    INDEX 01 00:06:04
  TRACK 10 AUDIO
    TITLE "0:"
    INDEX 01 00:07:27
  TRACK 11 AUDIO
    TITLE "2:cjc143_1172"
    INDEX 01 00:07:54
  TRACK 12 AUDIO
    TITLE "0:"
    INDEX 01 00:09:08
  TRACK 13 AUDIO
    TITLE "2:cjc143_1173"
    INDEX 01 00:09:16
  TRACK 14 AUDIO
    TITLE "0:"
    INDEX 01 00:10:45
  TRACK 15 AUDIO
    TITLE "2:cjc143_1174"
    INDEX 01 00:10:51
  TRACK 16 AUDIO
    TITLE "0:"
    INDEX 01 00:12:16
  TRACK 17 AUDIO
    TITLE "2:cjc143_1175"
    INDEX 01 00:12:22
  TRACK 18 AUDIO
    TITLE "0:"
    INDEX 01 00:13:49
  TRACK 19 AUDIO
    TITLE "2:cjc143_1176"
    INDEX 01 00:13:55
  TRACK 20 AUDIO
    TITLE "0:"
    INDEX 01 00:14:72
  TRACK 21 AUDIO
    TITLE "2:cjc143_1177"
    INDEX 01 00:15:05
  TRACK 22 AUDIO
    TITLE "0:"
    INDEX 01 00:16:22
  TRACK 23 AUDIO
    TITLE "2:cjc143_1178"
    INDEX 01 00:16:28
  TRACK 24 AUDIO
    TITLE "0:"
    INDEX 01 00:17:55
  TRACK 25 AUDIO
    TITLE "2:cjc143_1179"
    INDEX 01 00:17:65
  TRACK 26 AUDIO
    TITLE "0:"
    INDEX 01 00:19:11
  TRACK 27 AUDIO
    TITLE "2:cjc143_1180"
    INDEX 01 00:19:24
  TRACK 28 AUDIO
    TITLE "0:"
    INDEX 01 00:20:49
  TRACK 29 AUDIO
    TITLE "2:cjc143_1181"
    INDEX 01 00:20:55
  TRACK 30 AUDIO
    TITLE "0:"
    INDEX 01 00:22:01
  TRACK 31 AUDIO
    TITLE "2:cjc143_1182"
    INDEX 01 00:22:15
  TRACK 32 AUDIO
    TITLE "0:"
    INDEX 01 00:23:34
  TRACK 33 AUDIO
    TITLE "2:cjc143_1183"
    INDEX 01 00:23:42
  TRACK 34 AUDIO
    TITLE "0:"
    INDEX 01 00:24:61
  TRACK 35 AUDIO
    TITLE "2:cjc143_1184"
    INDEX 01 00:24:74
  TRACK 36 AUDIO
    TITLE "0:"
    INDEX 01 00:26:17
  TRACK 37 AUDIO
    TITLE "2:cjc143_1185"
    INDEX 01 00:26:28
  TRACK 38 AUDIO
    TITLE "0:"
    INDEX 01 00:27:63
  TRACK 39 AUDIO
    TITLE "2:cjc143_1186"
    INDEX 01 00:27:73
  TRACK 40 AUDIO
    TITLE "0:"
    INDEX 01 00:29:25
  TRACK 41 AUDIO
    TITLE "2:cjc143_1187"
    INDEX 01 00:29:33
  TRACK 42 AUDIO
    TITLE "0:"
    INDEX 01 00:30:65
  TRACK 43 AUDIO
    TITLE "2:cjc143_1188"
    INDEX 01 00:31:00
  TRACK 44 AUDIO
    TITLE "0:"
    INDEX 01 00:32:25
  TRACK 45 AUDIO
    TITLE "2:cjc143_1189"
    INDEX 01 00:32:37
  TRACK 46 AUDIO
    TITLE "0:"
    INDEX 01 00:33:73
  TRACK 47 AUDIO
    TITLE "2:cjc143_1190"
    INDEX 01 00:34:08
  TRACK 48 AUDIO
    TITLE "0:"
    INDEX 01 00:35:37
  TRACK 49 AUDIO
    TITLE "2:cjc143_1191"
    INDEX 01 00:35:45
  TRACK 50 AUDIO
    TITLE "0:"
    INDEX 01 00:37:10
  TRACK 51 AUDIO
    TITLE "2:cjc143_1192"
    INDEX 01 00:37:14
  TRACK 52 AUDIO
    TITLE "0:"
    INDEX 01 00:38:37
  TRACK 53 AUDIO
    TITLE "2:cjc143_1193"
    INDEX 01 00:38:43
  TRACK 54 AUDIO
    TITLE "0:"
    INDEX 01 00:39:64
  TRACK 55 AUDIO
    TITLE "2:cjc143_1194"
    INDEX 01 00:40:03
  TRACK 56 AUDIO
    TITLE "0:"
    INDEX 01 00:41:18
  TRACK 57 AUDIO
    TITLE "2:cjc143_1195"
    INDEX 01 00:41:24
  TRACK 58 AUDIO
    TITLE "0:"
    INDEX 01 00:42:39
  TRACK 59 AUDIO
    TITLE "2:cjc143_1196"
    INDEX 01 00:42:53
  TRACK 60 AUDIO
    TITLE "0:"
    INDEX 01 00:43:72
  TRACK 61 AUDIO
    TITLE "2:cjc143_1197"
    INDEX 01 00:44:11
  TRACK 62 AUDIO
    TITLE "0:"
    INDEX 01 00:45:37
  TRACK 63 AUDIO
    TITLE "2:cjc143_1198"
    INDEX 01 00:45:47
  TRACK 64 AUDIO
    TITLE "0:"
    INDEX 01 00:46:74
  TRACK 65 AUDIO
    TITLE "2:cjc143_1199"
    INDEX 01 00:47:07
  TRACK 66 AUDIO
    TITLE "0:"
    INDEX 01 00:48:36
  TRACK 67 AUDIO
    TITLE "2:cjc143_1200"
    INDEX 01 00:49:10
  TRACK 68 AUDIO
    TITLE "0:"
    INDEX 01 00:50:46
  TRACK 69 AUDIO
    TITLE "2:cjc143_1201"
    INDEX 01 00:50:54
  TRACK 70 AUDIO
    TITLE "0:"
    INDEX 01 00:52:20
  TRACK 71 AUDIO
    TITLE "2:cjc143_1202"
    INDEX 01 00:52:28
  TRACK 72 AUDIO
    TITLE "0:"
    INDEX 01 00:53:58
  TRACK 73 AUDIO
    TITLE "2:cjc143_1203"
    INDEX 01 00:53:68
  TRACK 74 AUDIO
    TITLE "0:"
    INDEX 01 00:55:24
  TRACK 75 AUDIO
    TITLE "2:cjc143_1204"
    INDEX 01 00:55:32
  TRACK 76 AUDIO
    TITLE "0:"
    INDEX 01 00:56:69
  TRACK 77 AUDIO
    TITLE "2:cjc143_1205"
    INDEX 01 00:57:01
  TRACK 78 AUDIO
    TITLE "0:"
    INDEX 01 00:58:42
  TRACK 79 AUDIO
    TITLE "2:cjc143_1206"
    INDEX 01 00:58:54
  TRACK 80 AUDIO
    TITLE "0:"
    INDEX 01 01:00:53
  TRACK 81 AUDIO
    TITLE "2:cjc143_1207"
    INDEX 01 01:01:25
  TRACK 82 AUDIO
    TITLE "0:"
    INDEX 01 01:03:35
  TRACK 83 AUDIO
    TITLE "2:cjc143_1208"
    INDEX 01 01:03:43
  TRACK 84 AUDIO
    TITLE "0:"
    INDEX 01 01:04:64
  TRACK 85 AUDIO
    TITLE "2:cjc143_1209"
    INDEX 01 01:04:70
  TRACK 86 AUDIO
    TITLE "0:"
    INDEX 01 01:06:10
  TRACK 87 AUDIO
    TITLE "2:cjc143_1210"
    INDEX 01 01:06:18
  TRACK 88 AUDIO
    TITLE "0:"
    INDEX 01 01:07:45
  TRACK 89 AUDIO
    TITLE "2:cjc143_1211"
    INDEX 01 01:07:53
  TRACK 90 AUDIO
    TITLE "0:"
    INDEX 01 01:09:01
  TRACK 91 AUDIO
    TITLE "2:cjc143_1212"
    INDEX 01 01:09:09
  TRACK 92 AUDIO
    TITLE "0:"
    INDEX 01 01:10:37
  TRACK 93 AUDIO
    TITLE "2:cjc143_1213"
    INDEX 01 01:10:43
  TRACK 94 AUDIO
    TITLE "0:"
    INDEX 01 01:12:15
  TRACK 95 AUDIO
    TITLE "2:cjc143_1214"
    INDEX 01 01:12:28
  TRACK 96 AUDIO
    TITLE "0:"
    INDEX 01 01:13:55
  TRACK 97 AUDIO
    TITLE "2:cjc143_1215"
    INDEX 01 01:13:65
  TRACK 98 AUDIO
    TITLE "0:"
    INDEX 01 01:15:11
  TRACK 99 AUDIO
    TITLE "2:cjc143_1216"
    INDEX 01 01:15:19
  TRACK 100 AUDIO
    TITLE "0:"
    INDEX 01 01:16:58
  TRACK 101 AUDIO
    TITLE "2:cjc143_1217"
    INDEX 01 01:16:67
  TRACK 102 AUDIO
    TITLE "0:"
    INDEX 01 01:18:53
  TRACK 103 AUDIO
    TITLE "2:cjc143_1218"
    INDEX 01 01:18:74
  TRACK 104 AUDIO
    TITLE "0:"
    INDEX 01 01:20:36
  TRACK 105 AUDIO
    TITLE "2:cjc143_1219"
    INDEX 01 01:20:48
  TRACK 106 AUDIO
    TITLE "0:"
    INDEX 01 01:21:70
  TRACK 107 AUDIO
    TITLE "2:cjc143_1220"
    INDEX 01 01:22:01
  TRACK 108 AUDIO
    TITLE "0:"
    INDEX 01 01:23:28
  TRACK 109 AUDIO
    TITLE "2:cjc143_1221"
    INDEX 01 01:23:34
  TRACK 110 AUDIO
    TITLE "0:"
    INDEX 01 01:24:57
  TRACK 111 AUDIO
    TITLE "2:cjc143_1222"
    INDEX 01 01:24:65
  TRACK 112 AUDIO
    TITLE "0:"
    INDEX 01 01:26:30
  TRACK 113 AUDIO
    TITLE "2:cjc143_1223"
    INDEX 01 01:26:36
  TRACK 114 AUDIO
    TITLE "0:"
    INDEX 01 01:27:59
  TRACK 115 AUDIO
    TITLE "2:cjc143_1224"
    INDEX 01 01:27:65
  TRACK 116 AUDIO
    TITLE "0:"
    INDEX 01 01:29:19
  TRACK 117 AUDIO
    TITLE "2:cjc143_1225"
    INDEX 01 01:29:27
  TRACK 118 AUDIO
    TITLE "0:"
    INDEX 01 01:30:67
  TRACK 119 AUDIO
    TITLE "2:cjc143_1226"
    INDEX 01 01:31:02
  TRACK 120 AUDIO
    TITLE "0:"
    INDEX 01 01:32:23
  TRACK 121 AUDIO
    TITLE "2:cjc143_1227"
    INDEX 01 01:32:33
  TRACK 122 AUDIO
    TITLE "0:"
    INDEX 01 01:33:74
  TRACK 123 AUDIO
    TITLE "2:cjc143_1228"
    INDEX 01 01:34:08
  TRACK 124 AUDIO
    TITLE "0:"
    INDEX 01 01:36:11
  TRACK 125 AUDIO
    TITLE "2:cjc143_1229"
    INDEX 01 01:36:15
  TRACK 126 AUDIO
    TITLE "0:"
    INDEX 01 01:37:52
  TRACK 127 AUDIO
    TITLE "2:cjc143_1230"
    INDEX 01 01:37:68
  TRACK 128 AUDIO
    TITLE "0:"
    INDEX 01 01:39:19
  TRACK 129 AUDIO
    TITLE "2:cjc143_1231"
    INDEX 01 01:39:23
  TRACK 130 AUDIO
    TITLE "0:"
    INDEX 01 01:40:42
  TRACK 131 AUDIO
    TITLE "2:cjc143_1232"
    INDEX 01 01:40:50
  TRACK 132 AUDIO
    TITLE "0:"
    INDEX 01 01:42:26
  TRACK 133 AUDIO
    TITLE "2:cjc143_1233"
    INDEX 01 01:42:31
  TRACK 134 AUDIO
    TITLE "0:"
    INDEX 01 01:43:64
  TRACK 135 AUDIO
    TITLE "2:cjc143_1234"
    INDEX 01 01:43:74
  TRACK 136 AUDIO
    TITLE "0:"
    INDEX 01 01:45:14
  TRACK 137 AUDIO
    TITLE "2:cjc143_1235"
    INDEX 01 01:45:63
  TRACK 138 AUDIO
    TITLE "0:"
    INDEX 01 01:47:37
  TRACK 139 AUDIO
    TITLE "2:cjc143_1236"
    INDEX 01 01:47:72
  TRACK 140 AUDIO
    TITLE "0:"
    INDEX 01 01:49:49
  TRACK 141 AUDIO
    TITLE "2:cjc143_1237"
    INDEX 01 01:49:57
  TRACK 142 AUDIO
    TITLE "0:"
    INDEX 01 01:51:09
  TRACK 143 AUDIO
    TITLE "2:cjc143_1238"
    INDEX 01 01:51:17
  TRACK 144 AUDIO
    TITLE "0:"
    INDEX 01 01:52:53
  TRACK 145 AUDIO
    TITLE "2:cjc143_1239"
    INDEX 01 01:52:65
  TRACK 146 AUDIO
    TITLE "0:"
    INDEX 01 01:54:27
  TRACK 147 AUDIO
    TITLE "2:cjc143_1240"
    INDEX 01 01:54:39
  TRACK 148 AUDIO
    TITLE "0:"
    INDEX 01 01:55:69
  TRACK 149 AUDIO
    TITLE "2:cjc143_1241"
    INDEX 01 01:56:37
  TRACK 150 AUDIO
    TITLE "0:"
    INDEX 01 01:58:01
  TRACK 151 AUDIO
    TITLE "2:cjc143_1242"
    INDEX 01 01:58:07
  TRACK 152 AUDIO
    TITLE "0:"
    INDEX 01 02:00:02
  TRACK 153 AUDIO
    TITLE "2:cjc143_1243"
    INDEX 01 02:00:16
  TRACK 154 AUDIO
    TITLE "0:"
    INDEX 01 02:01:68
  TRACK 155 AUDIO
    TITLE "2:cjc143_1244"
    INDEX 01 02:02:05
  TRACK 156 AUDIO
    TITLE "0:"
    INDEX 01 02:03:47
  TRACK 157 AUDIO
    TITLE "2:cjc143_1245"
    INDEX 01 02:04:37
  TRACK 158 AUDIO
    TITLE "0:"
    INDEX 01 02:05:66
  TRACK 159 AUDIO
    TITLE "2:cjc143_1246"
    INDEX 01 02:06:22
  TRACK 160 AUDIO
    TITLE "0:"
    INDEX 01 02:07:31
  TRACK 161 AUDIO
    TITLE "2:cjc143_1247"
    INDEX 01 02:07:51
  TRACK 162 AUDIO
    TITLE "0:"
    INDEX 01 02:09:38
  TRACK 163 AUDIO
    TITLE "2:cjc143_1248"
    INDEX 01 02:10:22
  TRACK 164 AUDIO
    TITLE "0:"
    INDEX 01 02:11:55
  TRACK 165 AUDIO
    TITLE "2:cjc143_1249"
    INDEX 01 02:11:66
  TRACK 166 AUDIO
    TITLE "0:"
    INDEX 01 02:13:30
  TRACK 167 AUDIO
    TITLE "2:cjc143_1250"
    INDEX 01 02:13:38
  TRACK 168 AUDIO
    TITLE "0:"
    INDEX 01 02:14:63
  TRACK 169 AUDIO
    TITLE "2:cjc143_1251"
    INDEX 01 02:15:00
  TRACK 170 AUDIO
    TITLE "0:"
    INDEX 01 02:16:28
  TRACK 171 AUDIO
    TITLE "2:cjc143_1252"
    INDEX 01 02:16:34
  TRACK 172 AUDIO
    TITLE "0:"
    INDEX 01 02:18:02
  TRACK 173 AUDIO
    TITLE "2:cjc143_1253"
    INDEX 01 02:18:08
  TRACK 174 AUDIO
    TITLE "0:"
    INDEX 01 02:19:58
  TRACK 175 AUDIO
    TITLE "2:cjc143_1254"
    INDEX 01 02:19:68
  TRACK 176 AUDIO
    TITLE "0:"
    INDEX 01 02:21:55
  TRACK 177 AUDIO
    TITLE "2:cjc143_1255"
    INDEX 01 02:21:71
  TRACK 178 AUDIO
    TITLE "0:"
    INDEX 01 02:23:23
  TRACK 179 AUDIO
    TITLE "2:cjc143_1256"
    INDEX 01 02:23:38
  TRACK 180 AUDIO
    TITLE "0:"
    INDEX 01 02:24:61
